<svg width="651" height="416" viewBox="0 0 651 416" fill="none" xmlns="http://www.w3.org/2000/svg">
<g clip-path="url(#clip0_1107_20728)">
<g filter="url(#filter0_d_1107_20728)">
<path d="M117.891 343.229L156.727 362.647C159.555 364.061 162.889 364.042 165.7 362.595L263.111 312.479" stroke="#0FB9B6" stroke-width="2.21894"/>
<path d="M454.097 345.3L436.35 354.174C433.55 355.574 430.254 355.569 427.457 354.163L345.758 313.062" stroke="#0FB9B6" stroke-width="2.21894"/>
<path d="M43.9935 208.164L29.0735 215.442C26.3074 216.791 26.2833 220.725 29.0326 222.108L104.025 259.834C106.821 261.241 110.118 261.245 112.918 259.845L130.665 250.971" stroke="#0FB9B6" stroke-width="2.21894"/>
<path d="M573.723 216.986L513.22 247.484C510.392 248.909 507.053 248.899 504.234 247.455L487.052 238.654" stroke="#0FB9B6" stroke-width="2.21894"/>
<path d="M486.715 102.304L421.711 135.186" stroke="#0FB9B6" stroke-width="2.21894"/>
<path d="M198.372 132.628L133.369 99.7451" stroke="#0FB9B6" stroke-width="2.21894"/>
<g filter="url(#filter1_d_1107_20728)">
<path d="M303.388 112.16C301.906 112.169 300.429 112.187 298.956 112.214L298.976 113.323C297.503 113.35 296.034 113.386 294.57 113.43L294.536 112.321C293.053 112.366 291.575 112.42 290.101 112.483L290.148 113.591C288.679 113.654 287.214 113.725 285.753 113.805L285.693 112.697C284.209 112.779 282.73 112.869 281.257 112.968L281.331 114.075C279.862 114.174 278.398 114.282 276.94 114.398L276.852 113.292C275.372 113.411 273.897 113.538 272.428 113.674L272.53 114.779C271.063 114.915 269.601 115.06 268.145 115.213L268.028 114.11C266.553 114.266 265.084 114.43 263.621 114.604L263.751 115.705C262.286 115.879 260.827 116.062 259.375 116.254L259.23 115.154C257.76 115.347 256.297 115.55 254.841 115.762L255.001 116.86C253.539 117.072 252.084 117.294 250.636 117.524L250.462 116.428C248.999 116.661 247.544 116.903 246.095 117.153L246.284 118.247C244.828 118.499 243.379 118.76 241.937 119.03L241.733 117.939C240.278 118.212 238.83 118.494 237.391 118.784L237.61 119.872C236.16 120.165 234.719 120.467 233.285 120.777L233.05 119.693C231.603 120.007 230.165 120.33 228.735 120.662L228.986 121.743C227.545 122.078 226.112 122.421 224.689 122.774L224.422 121.697C222.985 122.054 221.556 122.42 220.138 122.795L220.421 123.867C218.99 124.245 217.57 124.633 216.159 125.029L215.859 123.961C214.432 124.362 213.015 124.772 211.609 125.192L211.927 126.255C210.509 126.678 209.102 127.11 207.707 127.551L207.373 126.493C205.958 126.941 204.554 127.398 203.162 127.864L203.515 128.916C202.113 129.386 200.724 129.864 199.347 130.352L198.977 129.307C197.575 129.803 196.187 130.309 194.811 130.825L195.2 131.864C193.819 132.382 192.451 132.909 191.096 133.445L190.688 132.414C189.302 132.962 187.931 133.521 186.574 134.088L187.002 135.112C185.645 135.68 184.302 136.258 182.974 136.844L182.525 135.83C181.159 136.434 179.808 137.047 178.473 137.671L178.943 138.676C177.606 139.3 176.287 139.934 174.984 140.577L174.493 139.582C173.156 140.242 171.837 140.911 170.535 141.591L171.048 142.574C169.737 143.259 168.443 143.953 167.169 144.657L166.632 143.686C165.333 144.404 164.054 145.131 162.793 145.869L163.354 146.826C162.072 147.576 160.811 148.336 159.571 149.106L158.986 148.163C157.724 148.946 156.484 149.74 155.266 150.543L155.876 151.469C154.64 152.284 153.427 153.11 152.237 153.945L151.6 153.037C150.378 153.894 149.181 154.762 148.009 155.641L148.674 156.528C147.495 157.412 146.341 158.305 145.214 159.208L144.52 158.343C143.354 159.277 142.216 160.222 141.105 161.178L141.829 162.019C140.707 162.984 139.614 163.959 138.552 164.945L137.797 164.132C136.707 165.143 135.647 166.166 134.619 167.198L135.405 167.981C134.364 169.027 133.355 170.084 132.381 171.151L131.562 170.402C130.553 171.506 129.58 172.621 128.643 173.746L129.495 174.456C128.553 175.588 127.648 176.73 126.781 177.882L125.894 177.215C125 178.404 124.146 179.604 123.332 180.814L124.252 181.433C123.432 182.653 122.653 183.884 121.918 185.124L120.964 184.558C120.203 185.841 119.488 187.135 118.818 188.439L119.805 188.946C119.137 190.248 118.515 191.561 117.942 192.883L116.924 192.441C116.333 193.803 115.792 195.175 115.303 196.557L116.348 196.928C115.862 198.3 115.427 199.682 115.044 201.072L113.974 200.777C113.581 202.205 113.243 203.642 112.959 205.087L114.048 205.301C113.769 206.723 113.544 208.153 113.376 209.591L112.274 209.461C112.102 210.924 111.987 212.394 111.929 213.872L113.038 213.916C113.009 214.639 112.995 215.365 112.995 216.092C112.995 216.82 113.009 217.545 113.038 218.269L111.929 218.312C111.987 219.79 112.102 221.261 112.274 222.723L113.376 222.594C113.544 224.032 113.769 225.462 114.048 226.883L112.959 227.097C113.243 228.543 113.581 229.98 113.974 231.407L115.044 231.113C115.427 232.503 115.862 233.884 116.348 235.256L115.303 235.627C115.792 237.009 116.333 238.381 116.924 239.743L117.942 239.301C118.515 240.623 119.137 241.935 119.805 243.238L118.818 243.745C119.488 245.049 120.203 246.342 120.964 247.625L121.918 247.06C122.653 248.3 123.432 249.53 124.252 250.75L123.332 251.37C124.146 252.58 125 253.779 125.894 254.968L126.781 254.301C127.648 255.453 128.553 256.595 129.495 257.727L128.643 258.437C129.58 259.562 130.553 260.677 131.562 261.781L132.381 261.032C133.355 262.099 134.364 263.155 135.405 264.201L134.619 264.984C135.647 266.017 136.707 267.039 137.797 268.051L138.552 267.237C139.614 268.222 140.707 269.198 141.829 270.163L141.105 271.004C142.216 271.959 143.354 272.905 144.52 273.839L145.214 272.973C146.341 273.876 147.495 274.769 148.674 275.652L148.009 276.541C149.181 277.419 150.378 278.287 151.6 279.144L152.237 278.236C153.427 279.071 154.64 279.896 155.876 280.711L155.266 281.637C156.484 282.44 157.724 283.234 158.986 284.017L159.571 283.074C160.811 283.844 162.072 284.603 163.354 285.353L162.793 286.311C164.054 287.048 165.334 287.776 166.633 288.493L167.169 287.522C168.444 288.226 169.737 288.92 171.048 289.605L170.535 290.588C171.837 291.267 173.156 291.937 174.493 292.596L174.984 291.602C176.287 292.245 177.607 292.878 178.943 293.502L178.473 294.507C179.808 295.131 181.159 295.744 182.525 296.348L182.974 295.333C184.302 295.92 185.645 296.497 187.002 297.065L186.574 298.089C187.931 298.657 189.302 299.215 190.688 299.763L191.096 298.732C192.451 299.268 193.819 299.795 195.201 300.312L194.811 301.351C196.187 301.867 197.575 302.373 198.977 302.869L199.347 301.824C200.724 302.311 202.113 302.79 203.515 303.259L203.162 304.311C204.554 304.777 205.958 305.234 207.373 305.682L207.707 304.624C209.102 305.065 210.509 305.497 211.927 305.92L211.609 306.983C213.015 307.402 214.432 307.812 215.859 308.213L216.159 307.145C217.57 307.541 218.99 307.929 220.421 308.307L220.138 309.379C221.556 309.754 222.985 310.12 224.422 310.476L224.689 309.399C226.112 309.752 227.545 310.096 228.986 310.43L228.735 311.511C230.165 311.843 231.603 312.166 233.05 312.479L233.285 311.395C234.719 311.706 236.16 312.008 237.61 312.3L237.391 313.388C238.83 313.678 240.278 313.96 241.733 314.233L241.937 313.142C243.379 313.412 244.828 313.673 246.284 313.925L246.095 315.018C247.543 315.269 248.999 315.51 250.462 315.743L250.636 314.647C252.084 314.877 253.539 315.098 255.001 315.311L254.841 316.409C256.297 316.62 257.76 316.823 259.229 317.016L259.374 315.916C260.827 316.108 262.286 316.29 263.751 316.464L263.621 317.566C265.084 317.739 266.553 317.904 268.028 318.059L268.144 316.956C269.601 317.109 271.063 317.254 272.53 317.39L272.428 318.495C273.897 318.631 275.372 318.758 276.852 318.876L276.94 317.77C278.398 317.886 279.862 317.994 281.331 318.093L281.257 319.2C282.73 319.299 284.209 319.389 285.693 319.47L285.753 318.362C287.214 318.442 288.679 318.513 290.148 318.576L290.101 319.684C291.575 319.747 293.053 319.801 294.536 319.845L294.57 318.736C296.034 318.781 297.503 318.816 298.976 318.843L298.956 319.952C300.429 319.979 301.906 319.996 303.388 320.005L303.394 318.896C304.133 318.9 304.872 318.902 305.612 318.902C306.353 318.902 307.092 318.9 307.83 318.896L307.837 320.005C309.318 319.996 310.795 319.978 312.268 319.951L312.248 318.842C313.721 318.815 315.19 318.78 316.655 318.735L316.688 319.844C318.171 319.799 319.65 319.746 321.123 319.683L321.076 318.574C322.546 318.512 324.011 318.44 325.471 318.36L325.532 319.468C327.016 319.387 328.494 319.296 329.968 319.197L329.893 318.09C331.362 317.991 332.826 317.884 334.285 317.767L334.373 318.873C335.853 318.755 337.328 318.628 338.797 318.491L338.694 317.387C340.162 317.251 341.624 317.106 343.08 316.952L343.197 318.056C344.672 317.9 346.141 317.735 347.604 317.562L347.473 316.46C348.939 316.286 350.398 316.103 351.85 315.912L351.995 317.012C353.465 316.818 354.928 316.615 356.384 316.404L356.224 315.306C357.686 315.093 359.141 314.872 360.588 314.642L360.762 315.737C362.225 315.505 363.681 315.263 365.129 315.012L364.94 313.919C366.397 313.667 367.846 313.406 369.287 313.136L369.491 314.226C370.947 313.953 372.395 313.672 373.834 313.381L373.615 312.294C375.065 312.001 376.506 311.699 377.939 311.388L378.174 312.472C379.622 312.158 381.06 311.835 382.49 311.503L382.239 310.423C383.68 310.088 385.112 309.744 386.535 309.391L386.802 310.468C388.24 310.111 389.668 309.746 391.087 309.371L390.803 308.298C392.234 307.92 393.655 307.533 395.065 307.136L395.365 308.204C396.793 307.803 398.209 307.393 399.615 306.974L399.298 305.911C400.716 305.488 402.122 305.055 403.517 304.614L403.852 305.672C405.267 305.224 406.671 304.767 408.062 304.301L407.71 303.249C409.111 302.78 410.501 302.301 411.877 301.813L412.248 302.859C413.649 302.362 415.038 301.856 416.414 301.34L416.024 300.302C417.406 299.784 418.774 299.257 420.129 298.72L420.537 299.752C421.923 299.203 423.294 298.645 424.651 298.077L424.222 297.054C425.58 296.485 426.923 295.908 428.251 295.321L428.699 296.336C430.066 295.732 431.417 295.118 432.752 294.495L432.282 293.489C433.618 292.865 434.938 292.232 436.241 291.589L436.732 292.583C438.069 291.924 439.388 291.254 440.69 290.575L440.176 289.591C441.488 288.907 442.781 288.212 444.056 287.508L444.592 288.479C445.891 287.762 447.171 287.034 448.431 286.297L447.871 285.339C449.153 284.589 450.414 283.829 451.654 283.06L452.239 284.002C453.5 283.219 454.741 282.426 455.959 281.622L455.348 280.696C456.584 279.881 457.798 279.056 458.987 278.221L459.625 279.129C460.846 278.271 462.044 277.403 463.216 276.525L462.551 275.637C463.73 274.754 464.883 273.86 466.011 272.957L466.704 273.823C467.871 272.888 469.009 271.943 470.12 270.988L469.396 270.147C470.518 269.182 471.61 268.206 472.673 267.22L473.427 268.034C474.518 267.022 475.578 266 476.606 264.967L475.82 264.184C476.861 263.138 477.87 262.081 478.844 261.015L479.663 261.763C480.672 260.66 481.645 259.545 482.582 258.419L481.729 257.709C482.672 256.577 483.577 255.435 484.444 254.283L485.33 254.95C486.225 253.761 487.079 252.562 487.893 251.352L486.972 250.733C487.793 249.512 488.571 248.282 489.307 247.041L490.261 247.607C491.022 246.324 491.737 245.03 492.406 243.726L491.419 243.22C492.088 241.917 492.709 240.604 493.283 239.283L494.301 239.724C494.891 238.362 495.432 236.99 495.922 235.608L494.876 235.237C495.363 233.865 495.798 232.484 496.181 231.094L497.25 231.388C497.643 229.961 497.982 228.524 498.266 227.078L497.177 226.864C497.456 225.443 497.68 224.013 497.849 222.575L498.951 222.704C499.123 221.242 499.238 219.771 499.296 218.293L498.187 218.25C498.215 217.526 498.229 216.801 498.229 216.073C498.229 215.346 498.215 214.62 498.187 213.897L499.296 213.853C499.238 212.375 499.123 210.905 498.951 209.442L497.849 209.572C497.68 208.134 497.456 206.704 497.177 205.282L498.266 205.068C497.982 203.623 497.643 202.186 497.25 200.758L496.181 201.053C495.798 199.663 495.363 198.281 494.876 196.909L495.922 196.539C495.432 195.157 494.891 193.784 494.301 192.423L493.283 192.864C492.709 191.542 492.088 190.23 491.419 188.927L492.406 188.421C491.737 187.117 491.022 185.823 490.261 184.54L489.307 185.106C488.572 183.866 487.793 182.635 486.972 181.415L487.893 180.796C487.079 179.586 486.225 178.386 485.33 177.198L484.444 177.865C483.577 176.713 482.672 175.57 481.729 174.438L482.582 173.729C481.645 172.603 480.672 171.489 479.663 170.385L478.844 171.133C477.87 170.067 476.861 169.01 475.82 167.964L476.606 167.181C475.578 166.149 474.518 165.126 473.427 164.115L472.673 164.928C471.61 163.943 470.518 162.967 469.396 162.002L470.12 161.161C469.009 160.206 467.871 159.261 466.704 158.327L466.011 159.192C464.883 158.289 463.73 157.396 462.551 156.513L463.216 155.625C462.044 154.747 460.846 153.879 459.625 153.021L458.987 153.93C457.798 153.095 456.584 152.269 455.348 151.454L455.959 150.528C454.741 149.725 453.5 148.932 452.239 148.149L451.654 149.091C450.414 148.322 449.153 147.562 447.871 146.812L448.431 145.855C447.171 145.117 445.891 144.39 444.592 143.672L444.056 144.644C442.781 143.94 441.488 143.245 440.176 142.561L440.69 141.577C439.388 140.898 438.069 140.229 436.732 139.569L436.241 140.564C434.938 139.921 433.618 139.287 432.282 138.663L432.752 137.658C431.417 137.035 430.066 136.421 428.699 135.817L428.251 136.832C426.923 136.245 425.58 135.668 424.222 135.1L424.65 134.076C423.294 133.509 421.922 132.951 420.537 132.402L420.129 133.434C418.774 132.898 417.406 132.371 416.024 131.853L416.413 130.814C415.038 130.299 413.649 129.793 412.248 129.296L411.877 130.342C410.501 129.854 409.111 129.375 407.71 128.906L408.062 127.854C406.671 127.388 405.267 126.931 403.852 126.484L403.517 127.542C402.122 127.1 400.716 126.668 399.298 126.246L399.615 125.182C398.209 124.763 396.793 124.353 395.365 123.952L395.065 125.02C393.655 124.624 392.234 124.237 390.803 123.859L391.087 122.786C389.668 122.412 388.24 122.046 386.802 121.689L386.535 122.766C385.112 122.414 383.68 122.07 382.239 121.735L382.49 120.654C381.06 120.323 379.622 120 378.174 119.686L377.939 120.77C376.506 120.46 375.065 120.158 373.615 119.865L373.834 118.778C372.395 118.487 370.947 118.205 369.492 117.933L369.287 119.023C367.846 118.754 366.397 118.493 364.94 118.241L365.129 117.147C363.681 116.897 362.225 116.655 360.763 116.423L360.588 117.518C359.141 117.288 357.686 117.067 356.224 116.855L356.384 115.757C354.928 115.545 353.465 115.343 351.995 115.149L351.85 116.249C350.398 116.058 348.939 115.875 347.473 115.701L347.604 114.6C346.141 114.426 344.672 114.262 343.197 114.106L343.08 115.21C341.624 115.056 340.162 114.911 338.694 114.775L338.797 113.671C337.328 113.535 335.853 113.408 334.373 113.29L334.285 114.396C332.826 114.279 331.363 114.172 329.894 114.073L329.968 112.966C328.494 112.867 327.016 112.776 325.532 112.695L325.471 113.803C324.011 113.723 322.546 113.652 321.076 113.59L321.124 112.481C319.65 112.418 318.171 112.365 316.689 112.32L316.655 113.429C315.19 113.385 313.722 113.349 312.248 113.323L312.269 112.213C310.796 112.187 309.318 112.169 307.837 112.16L307.83 113.27C307.092 113.265 306.353 113.263 305.612 113.263C304.872 113.263 304.133 113.265 303.394 113.27L303.388 112.16Z" stroke="#0FB9B6" stroke-width="2.21894" stroke-dasharray="4.44 4.44" shape-rendering="crispEdges"/>
</g>
<g filter="url(#filter2_d_1107_20728)">
<path d="M118.399 214.562C118.399 270.075 202.273 315.077 305.736 315.077C409.199 315.077 493.072 270.075 493.072 214.562C493.072 159.049 409.199 114.047 305.736 114.047C202.273 114.047 118.399 159.049 118.399 214.562Z" stroke="#0FB9B6" stroke-width="2.21894" shape-rendering="crispEdges"/>
</g>
</g>
<g filter="url(#filter3_d_1107_20728)">
<path d="M174.737 342.116L131.241 363.725L86.2153 340.754L129.114 318.964L174.737 342.116Z" fill="#E4EBEF"/>
<path d="M174.055 342.116L174.05 343.83L131.237 365.439L131.241 363.725L174.055 342.116Z" fill="#A4B8CF"/>
<path d="M131.24 363.725L131.236 365.439L86.2097 342.468L86.2146 340.754L131.24 363.725Z" fill="#D7E2EF"/>
</g>
<g filter="url(#filter4_d_1107_20728)">
<path d="M142.227 333.413C148.506 337.056 148.539 342.964 142.301 346.607C138.792 348.403 134.91 349.339 130.972 349.339C127.034 349.339 123.152 348.403 119.643 346.607C113.364 342.962 113.331 337.054 119.562 333.415C123.073 331.619 126.956 330.682 130.895 330.682C134.834 330.681 138.717 331.617 142.227 333.413Z" fill="#9AABBE"/>
<path d="M145.883 307.125C145.883 307.272 145.858 307.417 145.846 307.564C145.834 307.711 145.821 307.878 145.792 308.035C145.764 308.192 145.731 308.292 145.696 308.418C145.661 308.569 145.619 308.719 145.568 308.866C145.525 308.988 145.467 309.11 145.416 309.23C145.348 309.387 145.28 309.543 145.198 309.698C145.138 309.809 145.066 309.919 144.992 310.03C144.885 310.206 144.77 310.38 144.642 310.552C144.515 310.723 144.391 310.884 144.247 311.048C144.215 311.085 144.186 311.124 144.151 311.161C143.959 311.368 143.739 311.575 143.523 311.782C143.381 311.91 143.223 312.034 143.067 312.16C142.91 312.286 142.797 312.383 142.655 312.493C142.513 312.603 142.303 312.731 142.122 312.851C141.941 312.971 141.756 313.099 141.555 313.217C141.1 313.479 140.631 313.717 140.151 313.93C140.012 313.994 139.868 314.052 139.726 314.112C139.347 314.273 138.956 314.42 138.557 314.557C138.415 314.606 138.273 314.66 138.127 314.705C137.876 314.784 137.619 314.854 137.362 314.925C137.168 314.978 136.975 315.036 136.775 315.084C136.506 315.15 136.228 315.204 135.953 315.26C135.765 315.299 135.58 315.34 135.391 315.375C134.833 315.475 134.268 315.551 133.698 315.611C133.523 315.63 133.346 315.642 133.169 315.657C132.834 315.683 132.498 315.708 132.161 315.723C131.955 315.723 131.731 315.737 131.515 315.741C131.244 315.741 130.972 315.741 130.692 315.741C130.466 315.741 130.238 315.741 130.009 315.723C129.781 315.704 129.505 315.7 129.252 315.681C128.999 315.663 128.795 315.646 128.567 315.624C128.339 315.601 128.069 315.572 127.82 315.541C127.571 315.51 127.376 315.481 127.156 315.446C126.89 315.404 126.627 315.357 126.366 315.307C126.16 315.268 125.954 315.227 125.749 315.181C125.436 315.113 125.131 315.034 124.823 314.954C124.652 314.908 124.481 314.865 124.315 314.815C123.765 314.656 123.231 314.476 122.714 314.273C122.459 314.174 122.212 314.067 121.967 313.955C121.836 313.897 121.702 313.843 121.574 313.781C121.198 313.603 120.832 313.413 120.482 313.209C119.267 312.666 118.219 311.808 117.445 310.721C116.672 309.635 116.201 308.361 116.082 307.03L115.985 339.329C116.104 340.66 116.574 341.934 117.348 343.021C118.122 344.107 119.17 344.966 120.385 345.508C120.735 345.714 121.101 345.903 121.478 346.082C121.603 346.142 121.737 346.194 121.867 346.252C122.089 346.351 122.307 346.459 122.535 346.546C122.562 346.546 122.591 346.562 122.615 346.573C123.134 346.779 123.669 346.955 124.216 347.114L124.346 347.16C124.469 347.195 124.601 347.22 124.726 347.253C125.033 347.333 125.343 347.412 125.654 347.48C125.736 347.499 125.817 347.524 125.901 347.542C126.022 347.567 126.148 347.584 126.269 347.606C126.532 347.656 126.794 347.704 127.059 347.745C127.166 347.761 127.265 347.784 127.378 347.801C127.491 347.817 127.61 347.826 127.728 347.84C127.975 347.871 128.221 347.898 128.47 347.923C128.59 347.935 128.707 347.954 128.826 347.964C128.946 347.974 129.048 347.964 129.16 347.981C129.411 347.999 129.664 348.012 129.915 348.022C130.042 348.022 130.168 348.039 130.295 348.043C130.423 348.047 130.501 348.043 130.598 348.043C130.869 348.043 131.143 348.043 131.42 348.043C131.556 348.043 131.692 348.043 131.832 348.043C131.912 348.043 131.99 348.03 132.071 348.028C132.408 348.012 132.743 347.987 133.081 347.96C133.214 347.948 133.35 347.945 133.492 347.933C133.533 347.933 133.574 347.921 133.616 347.914C134.185 347.854 134.751 347.778 135.309 347.679C135.335 347.679 135.364 347.679 135.393 347.666C135.556 347.637 135.712 347.596 135.872 347.563C136.148 347.507 136.424 347.453 136.695 347.387C136.901 347.34 137.088 347.282 137.284 347.228C137.541 347.158 137.796 347.087 138.047 347.009C138.102 346.992 138.16 346.98 138.214 346.961C138.304 346.932 138.386 346.891 138.477 346.86C138.876 346.723 139.265 346.577 139.645 346.415C139.787 346.355 139.931 346.298 140.071 346.233C140.551 346.02 141.019 345.782 141.474 345.52L141.655 345.413C141.791 345.33 141.908 345.241 142.038 345.156C142.221 345.036 142.406 344.918 142.577 344.794C142.748 344.67 142.855 344.575 142.988 344.466C143.122 344.356 143.303 344.213 143.447 344.085C143.476 344.058 143.511 344.033 143.54 344.009C143.731 343.831 143.906 343.649 144.075 343.465C144.11 343.428 144.138 343.388 144.173 343.349C144.272 343.237 144.379 343.124 144.463 343.01C144.503 342.958 144.527 342.907 144.564 342.857C144.69 342.688 144.808 342.513 144.916 342.332C144.961 342.259 145.021 342.189 145.062 342.125C145.083 342.088 145.095 342.048 145.116 342.011C145.198 341.856 145.266 341.701 145.334 341.544C145.373 341.453 145.426 341.364 145.459 341.273C145.472 341.242 145.476 341.211 145.486 341.18C145.539 341.031 145.574 340.882 145.613 340.731C145.64 340.632 145.679 340.525 145.7 340.429C145.7 340.403 145.7 340.376 145.71 340.349C145.739 340.192 145.749 340.035 145.764 339.877C145.764 339.774 145.795 339.671 145.799 339.571V339.439L145.883 307.125Z" fill="#EEEDF9"/>
<path d="M141.486 300.947C147.327 304.336 147.358 309.838 141.556 313.217C138.293 314.886 134.684 315.757 131.022 315.757C127.361 315.757 123.751 314.886 120.488 313.217C114.649 309.83 114.619 304.326 120.412 300.951C123.676 299.281 127.286 298.41 130.949 298.409C134.611 298.408 138.222 299.278 141.486 300.947V300.947Z" fill="#808B91"/>
<path d="M145.883 298.161C145.883 298.308 145.858 298.455 145.846 298.602C145.834 298.749 145.821 298.916 145.792 299.071C145.764 299.226 145.731 299.328 145.696 299.456C145.661 299.607 145.619 299.756 145.568 299.902C145.525 300.026 145.467 300.146 145.416 300.268C145.348 300.423 145.28 300.581 145.198 300.734C145.138 300.847 145.066 300.957 144.992 301.066C144.885 301.242 144.77 301.418 144.642 301.59C144.515 301.761 144.391 301.923 144.247 302.084C144.215 302.121 144.186 302.16 144.151 302.198C143.959 302.404 143.739 302.611 143.523 302.818C143.381 302.948 143.223 303.072 143.067 303.196C142.91 303.32 142.797 303.422 142.655 303.529C142.513 303.637 142.303 303.769 142.122 303.887C141.941 304.005 141.756 304.137 141.555 304.255C141.099 304.516 140.631 304.753 140.151 304.966C140.012 305.03 139.868 305.09 139.726 305.15C139.347 305.309 138.956 305.458 138.557 305.595C138.415 305.644 138.273 305.696 138.127 305.742C137.876 305.822 137.619 305.892 137.362 305.963C137.168 306.014 136.975 306.072 136.775 306.12C136.506 306.186 136.228 306.242 135.953 306.298C135.765 306.335 135.58 306.378 135.391 306.411C134.833 306.511 134.268 306.589 133.698 306.649C133.523 306.668 133.346 306.678 133.169 306.693C132.834 306.722 132.498 306.746 132.161 306.761C131.955 306.761 131.731 306.775 131.515 306.779C131.244 306.779 130.972 306.779 130.692 306.779C130.466 306.779 130.238 306.78 130.009 306.761C129.781 306.742 129.505 306.738 129.252 306.722C128.999 306.705 128.795 306.684 128.567 306.664C128.339 306.643 128.069 306.61 127.82 306.579C127.571 306.548 127.376 306.519 127.156 306.484C126.891 306.442 126.628 306.397 126.366 306.347C126.16 306.306 125.954 306.267 125.749 306.221C125.436 306.151 125.131 306.074 124.823 305.992C124.652 305.946 124.481 305.905 124.315 305.855C123.765 305.694 123.231 305.514 122.714 305.311C122.459 305.212 122.212 305.105 121.967 304.993C121.836 304.935 121.702 304.881 121.574 304.821C121.198 304.642 120.832 304.451 120.482 304.249C119.267 303.706 118.219 302.847 117.445 301.76C116.671 300.674 116.201 299.399 116.082 298.068L115.985 307.152C116.104 308.482 116.574 309.757 117.348 310.843C118.122 311.929 119.17 312.788 120.385 313.33C120.735 313.537 121.101 313.725 121.478 313.905C121.603 313.965 121.737 314.016 121.867 314.074C122.089 314.173 122.307 314.281 122.535 314.368C122.562 314.368 122.591 314.384 122.615 314.395C123.134 314.602 123.669 314.777 124.216 314.936L124.346 314.982C124.469 315.017 124.601 315.042 124.726 315.075C125.033 315.158 125.343 315.234 125.654 315.305C125.736 315.321 125.817 315.346 125.901 315.364C126.022 315.389 126.148 315.406 126.269 315.429C126.532 315.478 126.794 315.526 127.059 315.567C127.166 315.584 127.265 315.606 127.378 315.623C127.491 315.639 127.61 315.648 127.728 315.662C127.975 315.693 128.221 315.72 128.47 315.745C128.59 315.757 128.707 315.776 128.826 315.786C128.946 315.797 129.048 315.797 129.16 315.803C129.411 315.821 129.664 315.834 129.915 315.844C130.042 315.844 130.168 315.861 130.295 315.865C130.423 315.869 130.501 315.865 130.598 315.865C130.869 315.865 131.143 315.865 131.42 315.865C131.556 315.865 131.692 315.865 131.832 315.865C131.912 315.865 131.99 315.852 132.071 315.85C132.408 315.834 132.743 315.809 133.081 315.782C133.214 315.77 133.35 315.768 133.492 315.755C133.533 315.755 133.574 315.743 133.616 315.737C134.185 315.677 134.751 315.6 135.309 315.501C135.335 315.501 135.364 315.501 135.393 315.489C135.556 315.46 135.712 315.418 135.872 315.385C136.148 315.329 136.424 315.276 136.695 315.209C136.901 315.162 137.088 315.104 137.284 315.05C137.541 314.98 137.796 314.91 138.047 314.831C138.102 314.814 138.16 314.802 138.214 314.783C138.304 314.755 138.386 314.713 138.477 314.682C138.876 314.546 139.265 314.399 139.645 314.238C139.787 314.178 139.931 314.12 140.071 314.056C140.551 313.842 141.019 313.604 141.474 313.342L141.655 313.235C141.791 313.152 141.908 313.063 142.038 312.978C142.221 312.858 142.406 312.741 142.577 312.617C142.748 312.492 142.855 312.397 142.988 312.288C143.122 312.178 143.303 312.036 143.447 311.907C143.476 311.88 143.511 311.856 143.54 311.831C143.731 311.653 143.906 311.471 144.075 311.287C144.11 311.25 144.138 311.211 144.173 311.171C144.272 311.06 144.379 310.946 144.463 310.832C144.503 310.78 144.527 310.729 144.564 310.679C144.69 310.51 144.808 310.335 144.916 310.154C144.961 310.082 145.021 310.011 145.062 309.937C145.083 309.9 145.095 309.86 145.116 309.823C145.198 309.668 145.266 309.513 145.334 309.356C145.373 309.265 145.426 309.176 145.459 309.085C145.472 309.054 145.476 309.023 145.486 308.992C145.539 308.843 145.574 308.694 145.613 308.543C145.64 308.444 145.679 308.336 145.7 308.241C145.7 308.214 145.7 308.188 145.71 308.161C145.739 308.004 145.749 307.846 145.764 307.689C145.764 307.586 145.795 307.482 145.799 307.383V307.251L145.883 298.161Z" fill="#8294A3"/>
<path d="M141.486 291.985C147.327 295.372 147.358 300.876 141.556 304.254C138.293 305.923 134.684 306.793 131.022 306.793C127.361 306.793 123.751 305.923 120.488 304.254C114.649 300.866 114.619 295.363 120.412 291.989C123.675 290.318 127.286 289.446 130.949 289.445C134.611 289.445 138.222 290.315 141.486 291.985V291.985Z" fill="#9AABBE"/>
<path d="M140.047 294.774C140.041 294.871 140.03 294.967 140.014 295.062C139.999 295.14 139.975 295.219 139.956 295.298C139.938 295.376 139.909 295.48 139.878 295.571C139.847 295.662 139.814 295.719 139.783 295.796C139.752 295.872 139.701 295.986 139.65 296.079C139.598 296.172 139.569 296.216 139.528 296.286C139.462 296.393 139.39 296.493 139.312 296.606C139.267 296.668 139.216 296.728 139.166 296.79C139.045 296.935 138.916 297.073 138.779 297.204C138.728 297.254 138.681 297.305 138.627 297.355C138.539 297.433 138.44 297.512 138.343 297.589C138.247 297.665 138.181 297.725 138.09 297.795C138 297.866 137.872 297.946 137.759 298.019C137.646 298.091 137.537 298.17 137.413 298.242C137.004 298.474 136.579 298.676 136.142 298.848C136.025 298.895 135.905 298.941 135.786 298.984C135.51 299.084 135.22 299.164 134.93 299.247C134.64 299.33 134.328 299.41 134.017 299.474C133.651 299.551 133.285 299.619 132.908 299.667C132.818 299.679 132.729 299.696 132.636 299.704C132.127 299.759 131.614 299.788 131.102 299.791H130.859C130.352 299.791 129.846 299.762 129.343 299.706L129.116 299.679C128.623 299.622 128.132 299.537 127.648 299.427C127.561 299.408 127.475 299.385 127.388 299.363C126.96 299.257 126.538 299.128 126.123 298.976C126.049 298.949 125.969 298.928 125.897 298.899C125.417 298.716 124.951 298.495 124.504 298.24C123.355 297.659 122.456 296.677 121.976 295.477C121.866 295.148 121.81 294.803 121.809 294.456V294.456V297.037C121.882 297.852 122.17 298.632 122.644 299.298C123.118 299.963 123.76 300.489 124.504 300.82C124.927 301.064 125.367 301.277 125.821 301.455C125.845 301.455 125.872 301.472 125.895 301.48C125.969 301.509 126.047 301.53 126.121 301.556C126.386 301.654 126.652 301.751 126.93 301.831C127.078 301.875 127.234 301.906 127.386 301.943C127.475 301.966 127.559 301.989 127.648 302.007C127.736 302.026 127.802 302.049 127.88 302.065C128.178 302.127 128.481 302.181 128.785 302.224C128.894 302.239 129.005 302.247 129.114 302.262L129.341 302.286C129.452 302.299 129.561 302.313 129.672 302.324C129.972 302.348 130.271 302.365 130.571 302.371C130.668 302.371 130.762 302.371 130.857 302.371H131.102C131.235 302.371 131.371 302.371 131.513 302.371C131.852 302.36 132.189 302.337 132.525 302.303L132.643 302.288C132.733 302.288 132.822 302.262 132.914 302.249C133.173 302.216 133.435 302.187 133.69 302.142C133.805 302.121 133.908 302.082 134.021 302.059C134.334 301.993 134.638 301.914 134.934 301.829C135.095 301.784 135.264 301.759 135.42 301.707C135.576 301.656 135.667 301.612 135.792 301.567C135.918 301.521 136.029 301.478 136.146 301.43C136.585 301.26 137.011 301.058 137.42 300.825L137.531 300.758C137.615 300.707 137.687 300.651 137.767 300.599C137.878 300.527 137.992 300.454 138.096 300.38C138.201 300.305 138.267 300.246 138.352 300.173C138.436 300.101 138.545 300.018 138.631 299.94C138.65 299.923 138.672 299.909 138.689 299.892C138.705 299.875 138.751 299.822 138.786 299.789C138.921 299.658 139.05 299.52 139.17 299.375C139.197 299.344 139.232 299.315 139.257 299.284C139.281 299.253 139.296 299.222 139.318 299.191C139.397 299.086 139.467 298.984 139.524 298.871C139.553 298.825 139.59 298.782 139.615 298.736C139.639 298.691 139.635 298.691 139.648 298.668C139.697 298.573 139.738 298.478 139.779 298.383C139.804 298.327 139.837 298.271 139.857 298.215C139.857 298.196 139.857 298.176 139.874 298.157C139.907 298.066 139.927 297.975 139.952 297.884C139.977 297.793 139.993 297.76 140.006 297.698V297.649C140.022 297.553 140.028 297.458 140.036 297.361C140.036 297.299 140.057 297.235 140.059 297.173V297.092V294.512C140.071 294.588 140.057 294.679 140.047 294.774Z" fill="#C9C9C9"/>
<path d="M140.061 294.496C140.069 291.561 135.989 289.17 130.948 289.156C125.907 289.142 121.813 291.509 121.805 294.444C121.797 297.379 125.877 299.769 130.918 299.784C135.959 299.798 140.053 297.431 140.061 294.496Z" fill="#F4F4F4"/>
<path d="M125.457 319.673L123.056 324.169L126.987 326.449L119.807 331.972L121.182 325.614L118.347 323.97L121.398 317.318L125.457 319.673Z" fill="#8294A3"/>
</g>
<g filter="url(#filter5_d_1107_20728)">
<path d="M525.806 108.79L477.4 132.838L427.292 107.274L475.033 83.0244L525.806 108.79Z" fill="#E4EBEF"/>
<path d="M525.046 108.79L525.04 110.697L477.394 134.746L477.399 132.838L525.046 108.79Z" fill="#A4B8CF"/>
<path d="M477.399 132.838L477.394 134.746L427.285 109.182L427.29 107.274L477.399 132.838Z" fill="#D7E2EF"/>
</g>
<g filter="url(#filter6_d_1107_20728)">
<path d="M487.606 100.402C494.593 104.457 494.63 111.031 487.688 115.085C483.782 117.084 479.462 118.125 475.08 118.125C470.697 118.125 466.377 117.084 462.472 115.085C455.484 111.028 455.448 104.454 462.382 100.404C466.289 98.4051 470.61 97.3627 474.994 97.3623C479.377 97.3619 483.699 98.4035 487.606 100.402Z" fill="#9AABBE"/>
<path d="M491.674 71.1469C491.674 71.3103 491.646 71.4713 491.633 71.6347C491.619 71.7981 491.605 71.9845 491.573 72.1594C491.541 72.3342 491.504 72.4447 491.466 72.585C491.427 72.7539 491.38 72.9206 491.324 73.0844C491.275 73.2201 491.211 73.3559 491.154 73.4894C491.079 73.6643 491.003 73.8368 490.911 74.0094C490.845 74.1337 490.765 74.2556 490.682 74.3799C490.563 74.5755 490.435 74.7688 490.293 74.9597C490.151 75.1507 490.014 75.3302 489.854 75.512C489.817 75.5534 489.785 75.5971 489.746 75.6386C489.533 75.8687 489.288 76.0988 489.048 76.3289C488.89 76.4716 488.714 76.6096 488.54 76.75C488.366 76.8903 488.24 76.9985 488.082 77.1204C487.924 77.2424 487.69 77.3851 487.489 77.5185C487.287 77.652 487.081 77.7947 486.857 77.9258C486.351 78.2179 485.829 78.4829 485.295 78.7197C485.14 78.791 484.979 78.8555 484.821 78.9222C484.4 79.1017 483.965 79.265 483.521 79.4169C483.363 79.4721 483.205 79.532 483.042 79.5826C482.763 79.67 482.477 79.7483 482.191 79.8265C481.976 79.8864 481.76 79.9508 481.538 80.0037C481.238 80.0773 480.929 80.1372 480.623 80.1993C480.414 80.243 480.208 80.289 479.998 80.3282C479.377 80.4386 478.747 80.5237 478.113 80.5905C477.919 80.6112 477.722 80.625 477.525 80.6411C477.152 80.671 476.779 80.6986 476.403 80.7147C476.174 80.7147 475.925 80.7308 475.684 80.7354C475.382 80.7354 475.08 80.7354 474.768 80.7354C474.517 80.7354 474.262 80.7354 474.008 80.7147C473.754 80.694 473.447 80.6894 473.166 80.6687C472.884 80.648 472.657 80.6296 472.403 80.6043C472.149 80.579 471.849 80.5467 471.572 80.5122C471.295 80.4777 471.078 80.4455 470.833 80.4064C470.537 80.3604 470.244 80.3074 469.954 80.2522C469.725 80.2085 469.496 80.1625 469.267 80.1118C468.919 80.0359 468.58 79.9485 468.236 79.8587C468.046 79.8081 467.856 79.7598 467.671 79.7045C467.06 79.5274 466.464 79.3272 465.89 79.1017C465.606 78.9912 465.331 78.8716 465.059 78.7473C464.912 78.6829 464.763 78.623 464.621 78.554C464.202 78.3561 463.795 78.1444 463.406 77.9166C462.054 77.3132 460.887 76.3576 460.026 75.1487C459.165 73.9399 458.641 72.5217 458.508 71.041L458.401 106.986C458.533 108.467 459.057 109.885 459.918 111.094C460.779 112.303 461.946 113.258 463.298 113.862C463.687 114.092 464.095 114.301 464.514 114.501C464.653 114.568 464.802 114.626 464.947 114.69C465.194 114.8 465.436 114.92 465.691 115.017C465.72 115.017 465.752 115.035 465.78 115.047C466.357 115.277 466.952 115.472 467.561 115.65L467.705 115.7C467.843 115.739 467.989 115.767 468.129 115.804C468.47 115.893 468.816 115.981 469.161 116.057C469.253 116.078 469.342 116.105 469.436 116.126C469.571 116.154 469.711 116.172 469.846 116.197C470.139 116.252 470.43 116.305 470.725 116.351C470.844 116.37 470.954 116.395 471.08 116.414C471.206 116.432 471.339 116.441 471.469 116.457C471.744 116.492 472.019 116.522 472.296 116.549C472.428 116.563 472.559 116.584 472.692 116.595C472.825 116.607 472.939 116.595 473.063 116.614C473.342 116.634 473.624 116.648 473.903 116.66C474.045 116.66 474.185 116.678 474.326 116.683C474.468 116.687 474.555 116.683 474.663 116.683C474.965 116.683 475.27 116.683 475.579 116.683C475.73 116.683 475.881 116.683 476.037 116.683C476.126 116.683 476.213 116.669 476.302 116.667C476.678 116.648 477.051 116.621 477.426 116.591C477.575 116.577 477.726 116.575 477.884 116.561C477.93 116.561 477.976 116.547 478.022 116.54C478.656 116.473 479.285 116.388 479.906 116.278C479.936 116.278 479.968 116.278 480 116.264C480.181 116.232 480.355 116.186 480.533 116.149C480.84 116.087 481.147 116.027 481.449 115.953C481.678 115.9 481.886 115.836 482.104 115.776C482.39 115.698 482.674 115.62 482.953 115.532C483.015 115.514 483.079 115.5 483.139 115.479C483.239 115.447 483.331 115.401 483.432 115.367C483.876 115.215 484.309 115.051 484.732 114.872C484.89 114.805 485.05 114.741 485.206 114.669C485.74 114.432 486.261 114.167 486.768 113.875L486.969 113.756C487.12 113.664 487.251 113.565 487.395 113.47C487.599 113.337 487.805 113.206 487.995 113.068C488.185 112.93 488.304 112.824 488.453 112.702C488.601 112.58 488.803 112.421 488.963 112.279C488.995 112.249 489.034 112.221 489.066 112.193C489.279 111.995 489.474 111.793 489.661 111.588C489.7 111.547 489.732 111.503 489.771 111.459C489.881 111.335 490 111.209 490.094 111.082C490.138 111.024 490.165 110.967 490.206 110.912C490.346 110.724 490.477 110.528 490.598 110.327C490.648 110.247 490.715 110.168 490.76 110.097C490.783 110.056 490.797 110.012 490.82 109.971C490.911 109.798 490.987 109.625 491.063 109.45C491.106 109.349 491.166 109.25 491.202 109.149C491.216 109.115 491.22 109.08 491.232 109.046C491.291 108.88 491.33 108.714 491.374 108.546C491.404 108.436 491.447 108.316 491.47 108.21C491.47 108.18 491.47 108.15 491.482 108.12C491.514 107.946 491.525 107.771 491.541 107.596C491.541 107.481 491.575 107.366 491.58 107.255V107.108L491.674 71.1469Z" fill="#EEEDF9"/>
<path d="M486.781 64.2718C493.281 68.0432 493.315 74.1664 486.859 77.9263C483.228 79.7845 479.21 80.7531 475.136 80.7531C471.061 80.7531 467.044 79.7845 463.412 77.9263C456.915 74.1572 456.88 68.0317 463.328 64.2764C466.96 62.4175 470.978 61.4481 475.054 61.4473C479.13 61.4465 483.148 62.4143 486.781 64.2718V64.2718Z" fill="#808B91"/>
<path d="M491.674 61.1719C491.674 61.3353 491.646 61.4987 491.633 61.6621C491.619 61.8254 491.605 62.0118 491.573 62.1844C491.541 62.357 491.504 62.4697 491.466 62.6124C491.427 62.7805 491.38 62.9464 491.324 63.1094C491.275 63.2475 491.211 63.381 491.154 63.5167C491.079 63.6893 491.003 63.8642 490.911 64.0344C490.845 64.161 490.765 64.2829 490.682 64.4049C490.563 64.6005 490.435 64.7961 490.293 64.9871C490.151 65.1781 490.014 65.3576 489.854 65.537C489.817 65.5785 489.785 65.6222 489.746 65.6636C489.533 65.8937 489.288 66.1238 489.048 66.3539C488.89 66.4989 488.714 66.637 488.54 66.775C488.366 66.9131 488.24 67.0258 488.082 67.1455C487.924 67.2652 487.69 67.4124 487.489 67.5436C487.287 67.6748 487.081 67.822 486.857 67.9532C486.35 68.2435 485.829 68.5077 485.295 68.7447C485.14 68.8161 484.979 68.8828 484.821 68.9495C484.4 69.1267 483.965 69.2924 483.521 69.4443C483.363 69.4995 483.205 69.557 483.042 69.6076C482.763 69.6974 482.477 69.7756 482.191 69.8539C481.976 69.9114 481.76 69.9758 481.538 70.0287C481.238 70.1024 480.929 70.1645 480.623 70.2266C480.414 70.2681 480.208 70.3164 479.998 70.3532C479.377 70.4636 478.747 70.5511 478.113 70.6178C477.919 70.6385 477.722 70.65 477.525 70.6661C477.152 70.6984 476.779 70.726 476.403 70.7421C476.174 70.7421 475.925 70.7582 475.684 70.7628C475.382 70.7628 475.08 70.7628 474.768 70.7628C474.517 70.7628 474.262 70.7628 474.008 70.7421C473.754 70.7214 473.447 70.7167 473.166 70.6983C472.884 70.6799 472.657 70.6569 472.403 70.6339C472.149 70.6109 471.849 70.5741 471.572 70.5396C471.295 70.505 471.078 70.4729 470.833 70.4337C470.538 70.3877 470.245 70.3371 469.954 70.2818C469.725 70.2358 469.496 70.1921 469.267 70.1415C468.919 70.0633 468.58 69.9781 468.236 69.8861C468.046 69.8354 467.856 69.7894 467.671 69.7342C467.06 69.5547 466.464 69.3545 465.89 69.129C465.606 69.0186 465.331 68.8989 465.059 68.7746C464.912 68.7102 464.763 68.6504 464.621 68.5837C464.202 68.3835 463.795 68.1718 463.406 67.9463C462.054 67.3424 460.887 66.3864 460.026 65.1772C459.165 63.9679 458.641 62.5494 458.508 61.0684L458.401 71.177C458.533 72.6577 459.057 74.076 459.918 75.2849C460.779 76.4938 461.946 77.4493 463.298 78.0526C463.687 78.2827 464.095 78.4921 464.514 78.6923C464.653 78.759 464.802 78.8165 464.947 78.8809C465.194 78.9914 465.436 79.1111 465.691 79.2077C465.72 79.2077 465.752 79.2261 465.78 79.2376C466.357 79.4677 466.952 79.6633 467.561 79.8405L467.705 79.8911C467.843 79.9303 467.989 79.9579 468.129 79.9947C468.47 80.0867 468.816 80.1718 469.161 80.2501C469.253 80.2685 469.342 80.2961 469.436 80.3168C469.571 80.3444 469.711 80.3629 469.846 80.3882C470.139 80.4434 470.43 80.4963 470.725 80.5423C470.844 80.5607 470.954 80.5861 471.08 80.6045C471.206 80.6229 471.339 80.6321 471.469 80.6482C471.744 80.6827 472.019 80.7126 472.296 80.7402C472.428 80.754 472.559 80.7747 472.692 80.7862C472.825 80.7977 472.939 80.7978 473.063 80.8047C473.342 80.8254 473.624 80.8392 473.903 80.8507C474.045 80.8507 474.185 80.8691 474.326 80.8737C474.468 80.8783 474.555 80.8737 474.663 80.8737C474.965 80.8737 475.27 80.8737 475.579 80.8737C475.73 80.8737 475.881 80.8737 476.037 80.8737C476.126 80.8737 476.213 80.8599 476.302 80.8576C476.678 80.8392 477.051 80.8116 477.426 80.7816C477.575 80.7678 477.726 80.7655 477.884 80.7517C477.93 80.7517 477.976 80.7379 478.022 80.731C478.656 80.6643 479.285 80.5791 479.906 80.4687C479.936 80.4687 479.968 80.4687 480 80.4549C480.181 80.4227 480.355 80.3766 480.533 80.3398C480.84 80.2777 481.147 80.2179 481.449 80.1443C481.678 80.0913 481.886 80.0269 482.104 79.967C482.39 79.8888 482.674 79.8106 482.953 79.7232C483.015 79.7048 483.079 79.6909 483.139 79.6702C483.239 79.638 483.331 79.592 483.432 79.5575C483.876 79.4056 484.309 79.2422 484.732 79.0628C484.89 78.996 485.05 78.9316 485.206 78.8603C485.74 78.6225 486.261 78.3575 486.768 78.0664L486.969 77.9467C487.12 77.8547 487.251 77.7557 487.395 77.6614C487.599 77.5279 487.805 77.3968 487.995 77.2587C488.185 77.1207 488.304 77.0148 488.453 76.8928C488.601 76.7709 488.803 76.6121 488.963 76.4694C488.995 76.4395 489.034 76.4119 489.066 76.3843C489.279 76.1864 489.474 75.9839 489.661 75.7791C489.7 75.7377 489.732 75.694 489.771 75.6503C489.881 75.526 490 75.3994 490.094 75.2729C490.138 75.2154 490.165 75.1578 490.206 75.1026C490.346 74.9145 490.477 74.7194 490.598 74.5181C490.648 74.4376 490.715 74.3594 490.76 74.2765C490.783 74.2351 490.797 74.1914 490.82 74.1499C490.911 73.9774 490.987 73.8048 491.063 73.6299C491.106 73.5287 491.166 73.4297 491.202 73.3285C491.216 73.294 491.22 73.2594 491.232 73.2249C491.291 73.0593 491.33 72.8936 491.374 72.7256C491.404 72.6152 491.447 72.4955 491.47 72.3896C491.47 72.3597 491.47 72.3298 491.482 72.2999C491.514 72.125 491.525 71.9501 491.541 71.7752C491.541 71.6602 491.575 71.5451 491.58 71.4347V71.2874L491.674 61.1719Z" fill="#8294A3"/>
<path d="M486.781 54.2989C493.281 58.068 493.315 64.1935 486.859 67.9534C483.227 69.8105 479.21 70.7785 475.136 70.7785C471.061 70.7785 467.044 69.8105 463.412 67.9534C456.915 64.182 456.88 58.0588 463.328 54.3035C466.959 52.4435 470.978 51.4735 475.054 51.4727C479.13 51.4719 483.148 52.4403 486.781 54.2989V54.2989Z" fill="#9AABBE"/>
<path d="M485.179 57.4022C485.172 57.5094 485.16 57.6162 485.142 57.7221C485.126 57.8095 485.098 57.8969 485.078 57.9844C485.057 58.0718 485.025 58.1869 484.991 58.2881C484.956 58.3894 484.92 58.4538 484.885 58.5389C484.851 58.6241 484.794 58.7507 484.737 58.8542C484.679 58.9577 484.647 59.0061 484.602 59.0843C484.528 59.2039 484.448 59.3144 484.361 59.4409C484.311 59.51 484.254 59.5767 484.199 59.6458C484.064 59.8069 483.92 59.9605 483.768 60.106C483.711 60.1612 483.658 60.2187 483.599 60.2739C483.5 60.3614 483.39 60.4488 483.283 60.534C483.175 60.6191 483.102 60.6858 483.001 60.7641C482.9 60.8423 482.759 60.932 482.633 61.0126C482.507 61.0931 482.385 61.1806 482.248 61.2611C481.793 61.5188 481.32 61.7441 480.833 61.9353C480.703 61.9882 480.57 62.0389 480.437 62.0872C480.13 62.1977 479.807 62.2874 479.485 62.3794C479.162 62.4715 478.814 62.5612 478.468 62.6326C478.061 62.7177 477.653 62.7936 477.234 62.8466C477.133 62.8604 477.035 62.8788 476.932 62.888C476.365 62.9491 475.794 62.9814 475.224 62.9846H474.954C474.389 62.9846 473.827 62.9532 473.266 62.8903L473.015 62.8604C472.465 62.7965 471.919 62.7028 471.38 62.5796C471.284 62.5589 471.188 62.5336 471.091 62.5083C470.615 62.3905 470.145 62.2469 469.683 62.078C469.601 62.0481 469.512 62.0251 469.432 61.9929C468.897 61.7882 468.379 61.5429 467.882 61.2588C466.603 60.6125 465.602 59.5195 465.068 58.1846C464.946 57.8181 464.883 57.4343 464.882 57.0479V57.0479V59.9196C464.963 60.8266 465.284 61.6953 465.811 62.4358C466.338 63.1762 467.053 63.7614 467.882 64.1306C468.352 64.4022 468.842 64.6383 469.347 64.837C469.374 64.837 469.404 64.8554 469.429 64.8646C469.512 64.8968 469.599 64.9198 469.681 64.9497C469.976 65.0579 470.272 65.166 470.581 65.2558C470.746 65.3041 470.92 65.3386 471.089 65.38C471.188 65.4053 471.281 65.4306 471.38 65.4513C471.478 65.4721 471.552 65.4974 471.639 65.5158C471.971 65.5848 472.307 65.6447 472.646 65.693C472.767 65.7091 472.891 65.7183 473.012 65.7344L473.264 65.762C473.388 65.7758 473.509 65.7919 473.633 65.8034C473.967 65.831 474.299 65.8495 474.633 65.8564C474.741 65.8564 474.846 65.8564 474.951 65.8564H475.224C475.373 65.8564 475.524 65.8564 475.682 65.8564C476.059 65.8441 476.434 65.8188 476.808 65.7804L476.939 65.7643C477.039 65.7643 477.138 65.7344 477.241 65.7206C477.529 65.6838 477.82 65.6515 478.104 65.6009C478.232 65.5779 478.347 65.5342 478.473 65.5089C478.821 65.4353 479.16 65.3478 479.489 65.2535C479.668 65.2028 479.855 65.1752 480.029 65.1177C480.203 65.0602 480.304 65.0118 480.444 64.9612C480.584 64.9106 480.707 64.8623 480.838 64.8094C481.326 64.6201 481.8 64.3947 482.255 64.1352L482.378 64.0615C482.472 64.004 482.553 63.9418 482.642 63.8843C482.765 63.8038 482.891 63.7232 483.008 63.6404C483.125 63.5576 483.198 63.4908 483.292 63.4103C483.386 63.3298 483.507 63.2377 483.603 63.1503C483.624 63.1319 483.649 63.1158 483.668 63.0974C483.686 63.079 483.736 63.0191 483.775 62.9823C483.926 62.8369 484.069 62.6832 484.203 62.5221C484.233 62.4876 484.272 62.4553 484.299 62.4208C484.327 62.3863 484.343 62.3518 484.368 62.3173C484.455 62.1999 484.533 62.0872 484.597 61.9606C484.629 61.91 484.67 61.8617 484.698 61.8111C484.725 61.7604 484.721 61.7605 484.734 61.7351C484.789 61.6293 484.835 61.5234 484.881 61.4176C484.908 61.3555 484.945 61.2933 484.968 61.2312C484.968 61.2105 484.968 61.1875 484.986 61.1668C485.023 61.0655 485.046 60.9643 485.073 60.863C485.101 60.7618 485.119 60.7249 485.133 60.6559V60.6007C485.151 60.4948 485.158 60.389 485.167 60.2809C485.167 60.2118 485.19 60.1405 485.192 60.0714V59.9817V57.11C485.206 57.1951 485.19 57.2963 485.179 57.4022Z" fill="#C9C9C9"/>
<path d="M485.195 57.0913C485.204 53.8253 480.664 51.1647 475.053 51.1487C469.443 51.1328 464.888 53.7675 464.878 57.0336C464.869 60.2997 469.41 62.9602 475.02 62.9761C480.63 62.9921 485.186 60.3574 485.195 57.0913Z" fill="#F4F4F4"/>
<path d="M468.942 85.1121L466.27 90.1147L470.645 92.6527L462.655 98.7989L464.184 91.7231L461.029 89.8938L464.425 82.4912L468.942 85.1121Z" fill="#8294A3"/>
</g>
<g filter="url(#filter7_d_1107_20728)">
<path d="M86.9172 217.59L44.2119 238.806L0.00537109 216.253L42.1242 194.859L86.9172 217.59Z" fill="#E4EBEF"/>
<path d="M86.2493 217.59L86.2445 219.273L44.2095 240.489L44.2139 238.806L86.2493 217.59Z" fill="#A4B8CF"/>
<path d="M44.2116 238.807L44.2072 240.49L-0.000208873 217.937L0.00457019 216.254L44.2116 238.807Z" fill="#D7E2EF"/>
</g>
<g filter="url(#filter8_d_1107_20728)">
<path d="M54.7691 193.455C54.3101 193.455 53.9659 193.228 53.7364 192.887C53.3922 192.319 53.6216 191.638 54.1954 191.297L60.3914 187.776C63.26 186.186 64.9812 183.12 64.9812 179.826V164.722C64.9812 163.813 64.5222 163.018 63.719 162.564C62.9158 162.11 61.9978 162.11 61.1946 162.45L53.5069 166.539C52.9332 166.879 52.2447 166.652 51.9005 166.084C51.5563 165.517 51.7858 164.835 52.3595 164.494L60.0472 160.406C61.5389 159.611 63.3748 159.611 64.8664 160.52C66.3581 161.428 67.276 162.905 67.276 164.722V179.826C67.276 183.915 65.0959 187.663 61.5389 189.707L55.3428 193.228C55.1133 193.341 54.9986 193.455 54.7691 193.455Z" fill="#252C35"/>
<path d="M41.918 164.154L42.1475 228.661L57.8672 219.576L57.7524 155.068L41.918 164.154Z" fill="#D8D8D8"/>
<path d="M41.918 164.153L27.231 155.749L27.4604 220.143L42.1475 228.661L41.918 164.153Z" fill="#FBFBFB"/>
<path d="M57.7525 155.068L43.0654 146.664L27.231 155.75L41.918 164.154L57.7525 155.068Z" fill="#FBFBFB"/>
<path d="M45.4751 174.376C45.4751 174.717 45.7046 174.944 46.1635 174.717L46.6225 174.376L46.7373 173.694H46.5078C46.2783 173.694 46.0488 173.808 46.0488 173.467V173.354C46.0488 173.354 46.0488 173.127 46.393 173.013L47.1962 172.445L47.7699 170.742C47.8847 170.514 47.9994 170.287 48.1142 170.174C48.6879 169.72 49.2616 169.379 49.8353 169.038L50.868 168.47C51.4417 168.13 52.0154 167.789 52.5891 167.562C52.7039 167.448 52.9334 167.562 52.9334 167.675L53.5071 168.697L54.3103 168.243C54.6545 168.016 54.6545 168.243 54.6545 168.243V168.357C54.6545 168.697 54.5397 168.811 54.3103 169.038L54.5397 169.379L54.7692 170.174V171.196L54.5397 171.65C53.7365 173.013 51.2122 174.489 50.7532 174.83H50.6385C50.6385 174.83 50.6385 174.83 50.5238 174.83C50.0648 175.057 47.5405 176.534 46.7373 176.079L46.5078 175.852V174.83V174.717L46.1635 175.057C45.7046 175.284 45.2456 175.057 45.2456 174.603V173.694L45.4751 173.581V174.376ZM50.5238 171.196C51.327 170.742 52.1302 170.287 52.9334 169.947L53.5071 169.72C53.5071 169.72 53.7366 169.606 53.6218 169.379L53.5071 169.038L53.2776 168.697L52.9334 168.243C52.1302 168.584 51.4417 168.925 50.6385 169.379C49.8353 169.833 49.1469 170.287 48.3437 170.855L47.9994 171.65L47.7699 172.332L47.6552 172.786C47.5405 173.127 47.7699 173.013 47.7699 172.899L48.3437 172.559L48.6879 172.332C49.3763 171.991 49.95 171.537 50.5238 171.196ZM53.5071 171.877C53.7365 171.764 53.8513 171.537 53.8513 171.309V170.855L53.0481 171.309L52.5891 172.445L53.5071 171.877ZM47.4257 174.83C47.4257 175.057 47.5405 175.171 47.7699 175.057L48.6879 174.489L48.2289 173.922L47.4257 174.376V174.83ZM49.4911 174.262L51.6712 173.013V172.672L49.4911 173.922V174.262ZM49.4911 173.694L51.6712 172.445V172.104L49.4911 173.354V173.694Z" fill="#BBBBBB"/>
<path d="M49.835 165.403L50.4087 166.425L49.4907 166.992L51.0971 168.242L50.8676 166.765L51.4413 166.425L50.7529 164.948L49.835 165.403Z" fill="#BBBBBB"/>
<path d="M46.5078 176.42V177.215C46.5078 177.555 46.7373 177.669 47.0815 177.555L47.9995 176.987C48.229 176.874 48.4584 176.533 48.4584 176.192C47.77 176.42 46.9668 176.647 46.5078 176.42Z" fill="#BBBBBB"/>
<path d="M54.77 171.763C54.311 172.444 53.5078 173.239 52.8193 173.807C52.8193 174.034 53.0488 174.148 53.393 174.034L54.311 173.466C54.5405 173.353 54.77 172.898 54.77 172.558V171.763Z" fill="#BBBBBB"/>
</g>
<g filter="url(#filter9_d_1107_20728)">
<path d="M186.138 96.7742L123.325 127.98L58.3042 94.8075L120.254 63.3408L186.138 96.7742Z" fill="#E4EBEF"/>
<path d="M185.156 96.7725L185.149 99.2476L123.322 130.453L123.329 127.978L185.156 96.7725Z" fill="#A4B8CF"/>
<path d="M123.326 127.981L123.32 130.456L58.2975 97.2837L58.3046 94.8086L123.326 127.981Z" fill="#D7E2EF"/>
</g>
<g filter="url(#filter10_d_1107_20728)">
<path d="M137.996 82.3976L165.581 69.3223V103.535L137.996 118.021V82.3976Z" fill="#F4F4F4"/>
<path d="M95.5605 59.3105L137.996 82.3978V118.021L95.5605 95.6384V59.3105Z" fill="#E5E5E5"/>
<path d="M123.106 46L165.581 69.3227L137.996 82.398L95.5605 59.3108L123.106 46Z" fill="#DEDFE2"/>
<path d="M127.298 106.66C131.023 106.205 133.401 100.409 132.61 93.7149C131.819 87.0207 128.158 81.9627 124.433 82.4176C120.708 82.8725 118.329 88.668 119.12 95.3622C119.912 102.056 123.573 107.114 127.298 106.66Z" fill="#CECECE"/>
<path d="M128.608 105.732C124.837 105.732 121.346 100.298 120.812 93.5828C120.418 88.6719 121.721 84.4516 123.93 82.5361C120.694 83.3829 118.553 88.4228 119.043 94.5473C119.58 101.256 123.07 106.697 126.839 106.697C127.854 106.68 128.829 106.288 129.581 105.594C129.264 105.682 128.936 105.728 128.608 105.732Z" fill="#C1C1C1"/>
<path d="M126.15 96.9442C126.888 96.8539 127.36 95.7039 127.203 94.3755C127.046 93.047 126.32 92.0433 125.581 92.1335C124.842 92.2237 124.37 93.3738 124.527 94.7022C124.684 96.0306 125.411 97.0344 126.15 96.9442Z" fill="#F4F4F4"/>
<path d="M125.511 94.7582L122.433 85.1946C122.578 84.7956 122.802 84.4317 123.093 84.1262C123.384 83.8206 123.734 83.5801 124.122 83.42C124.509 83.26 124.925 83.1839 125.343 83.1967C125.761 83.2095 126.172 83.3108 126.549 83.4942L125.861 94.5477L125.511 94.7582Z" fill="#F4F4F4"/>
<path d="M126.55 94.9229L132.312 95.8896C132.244 98.6793 131.611 101.425 130.452 103.954L126.048 95.5908L126.55 94.9229Z" fill="#F4F4F4"/>
<path d="M124.97 94.5469L120.738 95.8578C120.582 98.0011 121.264 100.12 122.636 101.756L125.531 95.3235L124.97 94.5469Z" fill="#F4F4F4"/>
<path d="M141.58 85.1444L161.998 75.1279V77.1317L141.58 87.1481V85.1444Z" fill="#E5E5E5"/>
<path d="M141.58 88.7831L161.998 78.7666V80.7703L141.58 90.7868V88.7831Z" fill="#E5E5E5"/>
<path d="M141.58 92.6131L161.998 82.5967V84.5982L141.58 94.6146V92.6131Z" fill="#E5E5E5"/>
<path d="M114.108 97.5852L98.7212 88.9272V68.7539L114.108 76.7078V97.5852Z" fill="#C1C1C1"/>
<path d="M115.444 80.8716L97.3867 70.8619V69.9834L115.444 79.9953V80.8716Z" fill="#E5E5E5"/>
<path d="M115.444 83.4754L97.3867 73.4634V72.585L115.444 82.5969V83.4754Z" fill="#E5E5E5"/>
<path d="M115.444 86.0789L97.3867 76.067V75.1885L115.444 85.2004V86.0789Z" fill="#E5E5E5"/>
<path d="M115.444 88.6805L97.3867 78.6685V77.79L115.444 87.802V88.6805Z" fill="#E5E5E5"/>
<path d="M115.444 91.284L97.3867 81.272V80.3936L115.444 90.4055V91.284Z" fill="#E5E5E5"/>
<path d="M115.444 93.8924L97.3867 83.8804V83.002L115.444 93.0139V93.8924Z" fill="#E5E5E5"/>
<path d="M115.444 96.4969L97.3867 86.4849V85.6064L115.444 95.6184V96.4969Z" fill="#E5E5E5"/>
<path d="M100.766 68.793H100.058V91.9934H100.766V68.793Z" fill="#E5E5E5"/>
<path d="M103.543 70.3008H102.835V93.5012H103.543V70.3008Z" fill="#E5E5E5"/>
<path d="M106.323 71.6367H105.615V94.8372H106.323V71.6367Z" fill="#E5E5E5"/>
<path d="M109.1 71.874H108.392V95.0745H109.1V71.874Z" fill="#E5E5E5"/>
<path d="M111.88 73.7422H111.172V96.9426H111.88V73.7422Z" fill="#E5E5E5"/>
</g>
<g filter="url(#filter11_d_1107_20728)">
<path d="M527.014 345.569L479.887 368.982L431.103 344.093L477.583 320.484L527.014 345.569Z" fill="#E4EBEF"/>
<path d="M526.275 345.569L526.269 347.426L479.882 370.839L479.887 368.982L526.275 345.569Z" fill="#A4B8CF"/>
<path d="M479.886 368.982L479.881 370.84L431.096 345.951L431.101 344.094L479.886 368.982Z" fill="#D7E2EF"/>
</g>
<g filter="url(#filter12_d_1107_20728)">
<path d="M482.016 341.055L481 341.673V357.885L481.786 357.382L482.016 357.267V341.055Z" fill="#566E7C"/>
<path d="M459.352 327.478L459.394 328.155L482.016 341.06V357.273L481.786 357.388L482.688 357.891L482.734 340.254L459.352 327.478Z" fill="#8294A3"/>
<path d="M458.551 328.671L480.999 341.673L482.048 341.055L459.394 328.149L458.551 328.671Z" fill="#697F8E"/>
<path d="M480.999 341.673L460.831 329.991L458.551 328.671V344.695L481.01 357.839V341.842" fill="#8294A3"/>
<path d="M501.545 330.051L482.733 340.249L482.688 357.84L501.545 347.688V330.051Z" fill="#8F9FAA"/>
<path d="M482.062 304.823L481.045 305.442V340.248L481.832 339.745L482.062 339.63V304.823Z" fill="#F4F4F4"/>
<path d="M459.405 291.03L459.448 291.711L482.07 304.823V339.624L481.839 339.739L482.741 340.242V304.433L459.405 291.03Z" fill="#EEEDF9"/>
<path d="M458.602 292.225L481.082 305.399L482.086 304.78L459.432 291.725L458.602 292.225Z" fill="#CED2DB"/>
<path d="M481.082 305.385L460.869 293.555L458.589 292.232V327.066L481.05 340.21V305.396L481.082 305.385ZM462.124 299.75L462.785 299.465L477.114 307.568V311.555L476.554 312.061L462.124 303.775V299.75Z" fill="#E5E5E5"/>
<path d="M477.111 307.472L476.552 307.813V312.158L477.111 311.652V307.472Z" fill="#D7DBE2"/>
<path d="M462.793 299.414L462.121 299.683L476.551 307.808L477.111 307.466L462.793 299.414Z" fill="#B6BECC"/>
<path d="M462.121 299.688V303.866L476.597 312.163V307.818L462.121 299.688Z" fill="#CED2DB"/>
<path d="M501.59 293.604L482.733 304.433V340.248L501.59 330.05V293.604Z" fill="#F4F4F4"/>
<path d="M482.734 304.433L501.59 293.604L478.88 279.744L459.397 291.036L482.734 304.433Z" fill="#CED2DB"/>
</g>
<g filter="url(#filter13_d_1107_20728)">
<path d="M651.246 215.701L597.189 242.729L517.912 201.291L571.136 174.257L651.246 215.701Z" fill="#E4EBEF"/>
<path d="M651.246 215.701L651.24 217.828L597.188 244.856L597.194 242.73L651.246 215.701Z" fill="#A4B8CF"/>
<path d="M597.189 242.731L597.184 244.857L517.905 203.419L517.911 201.293L597.189 242.731Z" fill="#D7E2EF"/>
</g>
<g filter="url(#filter14_d_1107_20728)">
<path d="M602.36 234.034L536.812 199.293L564.533 158.321L629.791 192.791L602.36 234.034Z" fill="#253785"/>
<path d="M602.36 234.034L536.812 199.293L557.836 168.545L612.913 217.567L602.36 234.034Z" fill="#384FAF"/>
<path d="M630.975 192.706L631.567 194.755L604.917 234.854L602.845 234.999L630.975 192.706Z" fill="#C9C8C8"/>
<path d="M606.102 232.979L628.903 217.942V199.123L627.718 200.7V217.727L607.287 231.403L606.102 232.979Z" fill="#C9C8C8"/>
<path d="M608.767 229.207L607.287 231.402L627.718 217.726V200.699L626.238 202.595V217.232L608.767 229.207Z" fill="#F3F2F3"/>
<path d="M564.647 160.303L627.718 193.829L601.956 232.074L538.885 198.547L564.647 160.303ZM564.054 157.357L535.924 199.352L602.845 234.7L630.975 192.705L564.054 157.357Z" fill="#F3F2F3"/>
<path d="M584.244 169.374L556.965 209.995L558.896 211.245L586.175 170.624L584.244 169.374Z" fill="#F3F2F3"/>
<path d="M606.527 180.991L579.248 221.612L581.179 222.862L608.458 182.241L606.527 180.991Z" fill="#F3F2F3"/>
<path d="M615.578 213.497L550.729 179.199L551.026 178.581L615.874 212.879L615.578 213.497Z" fill="#F3F2F3"/>
<path d="M622.684 203.739L557.836 169.441L558.132 168.524L622.98 203.121L622.684 203.739Z" fill="#F3F2F3"/>
<path d="M608.767 223.234L543.919 188.935L544.511 188.296L609.359 222.595L608.767 223.234Z" fill="#F3F2F3"/>
</g>
<g opacity="0.3" filter="url(#filter15_d_1107_20728)">
<path d="M126.506 212.689C126.506 265.586 207.057 308.468 306.423 308.468C405.788 308.468 486.339 265.587 486.339 212.689C486.339 159.792 405.788 116.91 306.423 116.91C207.058 116.91 126.506 159.792 126.506 212.689Z" fill="#D5F5FF"/>
</g>
<g opacity="0.6" filter="url(#filter16_d_1107_20728)">
<path d="M161.431 196.815C161.431 240.361 227.767 275.661 309.597 275.661C391.427 275.661 457.764 240.361 457.764 196.815C457.764 153.27 391.427 117.97 309.597 117.97C227.767 117.97 161.431 153.27 161.431 196.815Z" fill="#D5F5FF"/>
</g>
<g filter="url(#filter17_d_1107_20728)">
<path d="M190.006 184.645C190.006 219.13 242.601 247.086 307.481 247.086C372.36 247.086 424.956 219.13 424.956 184.645C424.956 150.159 372.36 122.203 307.481 122.203C242.601 122.203 190.006 150.159 190.006 184.645Z" fill="#D5F5FF"/>
</g>
<path d="M336.74 136.189L336.458 224.386C336.458 224.666 336.458 224.947 336.458 225.228C336.458 225.509 336.177 225.79 336.177 226.071C336.177 226.352 335.895 226.352 335.895 226.352C335.614 226.633 335.614 226.914 335.333 226.914L360.941 212.027C361.222 211.746 361.504 211.746 361.504 211.465C361.504 211.465 361.504 211.184 361.785 211.184V210.903V210.622V210.342C361.785 210.342 361.785 210.342 361.785 210.061C361.785 210.061 361.785 210.061 361.785 209.78C361.785 209.78 361.785 209.78 361.785 209.499C361.785 209.499 361.785 209.499 361.785 209.218L362.066 121.021L336.74 136.189Z" fill="url(#paint0_linear_1107_20728)"/>
<path d="M333.926 226.351C333.644 226.351 333.081 226.07 332.519 225.789L255.694 181.41C253.724 180.287 251.754 177.197 252.035 174.95L252.317 86.7532C252.317 86.1915 252.317 84.7871 253.724 84.7871C254.005 84.7871 254.568 85.0679 255.131 85.3488L331.956 129.728C333.926 130.852 335.895 133.941 335.614 136.188L335.333 224.385C335.333 224.947 335.333 226.351 333.926 226.351Z" fill="white"/>
<path d="M253.442 85.9111C253.442 85.9111 253.723 85.9111 254.286 86.192L331.111 130.571C332.8 131.695 334.207 134.223 334.207 136.189L333.925 224.385C333.925 224.947 333.925 225.228 333.644 225.228C333.644 225.228 333.362 225.228 332.8 224.947L255.975 180.568C254.286 179.725 252.879 176.917 252.879 174.95L253.161 86.7537C253.442 86.1919 253.442 85.9111 253.442 85.9111ZM253.442 83.6641C252.035 83.6641 250.909 84.7875 250.909 86.7537L250.628 174.95C250.628 177.759 252.598 181.13 255.131 182.534L331.955 226.913C332.8 227.194 333.363 227.475 333.925 227.475C335.332 227.475 336.458 226.351 336.458 224.385L336.739 136.189C336.739 133.38 334.77 130.009 332.237 128.605L255.412 84.2258C254.849 83.664 254.005 83.6641 253.442 83.6641Z" fill="#DCE4EF"/>
<path d="M333.925 130.009C334.488 130.571 335.051 131.133 335.332 131.976C335.614 132.256 335.614 132.537 335.895 133.099C336.177 133.38 336.177 133.942 336.177 134.223C336.177 134.504 336.458 135.065 336.458 135.346C336.458 135.627 336.458 136.189 336.458 136.47L362.066 121.583C362.066 121.583 362.066 121.583 362.066 121.302V121.021V120.74V120.459V120.179V119.898V119.617V119.336V119.055C362.066 119.055 362.066 119.055 362.066 118.774V118.493V118.212V117.931V117.651C362.066 117.651 362.066 117.651 362.066 117.37V117.089V116.808V116.527C362.066 116.527 362.066 116.246 361.785 116.246C361.785 115.965 361.504 115.965 361.504 115.684L361.222 115.404C361.222 115.404 361.222 115.123 360.941 115.123C360.941 115.123 360.941 115.123 360.659 114.842C360.659 114.842 360.659 114.842 360.378 114.561C360.378 114.561 360.378 114.561 360.096 114.28C360.096 114.28 360.096 114.28 359.815 113.999C359.815 113.999 359.815 113.999 359.534 113.718C359.534 113.718 359.534 113.718 359.252 113.437C359.252 113.437 359.252 113.437 358.971 113.157C358.971 113.157 358.971 113.157 358.689 113.157C358.689 113.157 358.689 113.157 358.408 113.157C358.408 113.157 358.408 113.157 358.127 113.157L281.302 68.7773C281.302 68.7773 281.302 68.7773 281.02 68.7773C281.02 68.7773 281.02 68.7773 280.739 68.7773C280.739 68.7773 280.739 68.7773 280.457 68.7773C280.457 68.7773 280.457 68.7773 280.176 68.7773C280.176 68.7773 280.176 68.7773 279.895 68.7773C279.895 68.7773 279.895 68.7773 279.613 68.7773C279.613 68.7773 279.613 68.7773 279.332 68.7773C279.332 68.7773 279.332 68.7773 279.05 68.7773H278.769H278.488H278.206C278.206 68.7773 277.925 68.7774 277.925 69.0582L252.316 83.9449C252.598 83.9449 252.598 83.6641 252.879 83.6641C253.161 83.6641 253.442 83.6641 253.723 83.6641C254.005 83.6641 254.286 83.664 254.568 83.9449C254.849 83.9449 255.131 84.2258 255.412 84.2258L332.237 128.605C332.518 128.886 332.8 128.886 333.081 129.167C333.644 129.448 333.925 129.729 333.925 130.009Z" fill="#F6F8FB"/>
<path d="M264.864 133.928L264.856 137.102L264.262 136.759L264.271 133.585L264.864 133.928Z" fill="#070708"/>
<path d="M265.469 134.445C266.516 135.484 267.14 136.873 267.22 138.344C267.22 140.029 266.01 140.72 264.535 139.872C263.761 139.367 263.118 138.687 262.657 137.887C262.197 137.087 261.932 136.19 261.884 135.268C261.884 133.993 262.593 133.243 263.654 133.401L263.849 134.173C263.021 134.027 262.481 134.622 262.478 135.611C262.516 136.328 262.722 137.025 263.08 137.647C263.438 138.269 263.937 138.799 264.538 139.192C265.686 139.855 266.623 139.321 266.629 138.004C266.566 136.866 266.081 135.792 265.27 134.99L265.469 134.445Z" fill="#070708"/>
<path d="M301.153 150.094L302.627 150.936L302.594 162.663L301.119 161.82V161.059C300.761 161.175 300.381 161.206 300.01 161.149C299.638 161.093 299.284 160.95 298.977 160.733C297.944 160.061 297.087 159.152 296.477 158.082C295.866 157.012 295.521 155.812 295.468 154.582C295.468 152.296 297.008 151.321 299.003 152.47C299.888 152.996 300.623 153.74 301.139 154.63L301.153 150.094ZM299.059 159.104C300.244 159.787 301.201 159.222 301.203 157.883C301.165 157.144 300.952 156.425 300.582 155.784C300.212 155.144 299.695 154.6 299.073 154.197C297.886 153.515 297.022 154.11 297.016 155.47C297.04 156.195 297.237 156.903 297.593 157.536C297.949 158.169 298.451 158.707 299.059 159.104" fill="#070708"/>
<path d="M294.277 150.074L294.255 157.863L292.783 157.014L292.806 149.226L294.277 150.074Z" fill="#070708"/>
<path d="M293.551 145.829C293.827 146.005 294.057 146.244 294.222 146.526C294.387 146.807 294.483 147.124 294.503 147.45C294.503 148.045 294.066 148.293 293.546 147.992C293.273 147.812 293.046 147.571 292.885 147.287C292.723 147.004 292.63 146.686 292.614 146.36C292.617 145.773 293.031 145.548 293.551 145.829Z" fill="#070708"/>
<path d="M284.287 144.315L285.762 145.158L285.739 152.947C285.739 155.233 284.11 156.157 282.118 155.008C281.207 154.439 280.437 153.67 279.866 152.761L280.696 151.857C281.052 152.452 281.544 152.955 282.132 153.323C283.319 154.006 284.273 153.464 284.279 152.104V151.32C283.942 151.447 283.58 151.491 283.223 151.446C282.866 151.402 282.525 151.272 282.23 151.068C281.199 150.397 280.343 149.49 279.735 148.422C279.128 147.353 278.786 146.155 278.738 144.928C278.738 142.638 280.257 141.655 282.253 142.804C283.099 143.327 283.801 144.051 284.298 144.911L284.287 144.315ZM282.205 149.391C283.39 150.073 284.346 149.509 284.349 148.169C284.311 147.431 284.098 146.712 283.728 146.072C283.358 145.432 282.841 144.888 282.219 144.487C281.051 143.812 280.184 144.408 280.181 145.767C280.204 146.489 280.4 147.194 280.752 147.825C281.104 148.455 281.602 148.992 282.205 149.391Z" fill="#070708"/>
<path d="M312.814 156.812L309.42 160.43L313.157 168.755L311.199 167.626L308.427 161.469L305.63 164.418L303.671 163.289L307.445 159.292L304.082 151.781L306.04 152.91L308.435 158.253L310.855 155.683L312.814 156.812Z" fill="#070708"/>
<path d="M291.134 148.097C291.382 148.237 291.617 148.4 291.835 148.583L291.436 149.987L291.129 149.771C289.944 149.085 288.99 149.507 288.984 150.866V154.821L287.513 153.978L287.535 146.189L289.007 147.032V147.796C289.361 147.681 289.737 147.648 290.106 147.7C290.474 147.752 290.826 147.888 291.134 148.097V148.097Z" fill="#070708"/>
</g>
<defs>
<filter id="filter0_d_1107_20728" x="12.7833" y="85.6631" width="574.531" height="292.232" filterUnits="userSpaceOnUse" color-interpolation-filters="sRGB">
<feFlood flood-opacity="0" result="BackgroundImageFix"/>
<feColorMatrix in="SourceAlpha" type="matrix" values="0 0 0 0 0 0 0 0 0 0 0 0 0 0 0 0 0 0 127 0" result="hardAlpha"/>
<feOffset/>
<feGaussianBlur stdDeviation="6.54587"/>
<feComposite in2="hardAlpha" operator="out"/>
<feColorMatrix type="matrix" values="0 0 0 0 0.427451 0 0 0 0 0.976471 0 0 0 0 1 0 0 0 1 0"/>
<feBlend mode="normal" in2="BackgroundImageFix" result="effect1_dropShadow_1107_20728"/>
<feBlend mode="normal" in="SourceGraphic" in2="effect1_dropShadow_1107_20728" result="shape"/>
</filter>
<filter id="filter1_d_1107_20728" x="108.985" y="109.252" width="393.255" height="213.661" filterUnits="userSpaceOnUse" color-interpolation-filters="sRGB">
<feFlood flood-opacity="0" result="BackgroundImageFix"/>
<feColorMatrix in="SourceAlpha" type="matrix" values="0 0 0 0 0 0 0 0 0 0 0 0 0 0 0 0 0 0 127 0" result="hardAlpha"/>
<feOffset/>
<feGaussianBlur stdDeviation="1.45059"/>
<feComposite in2="hardAlpha" operator="out"/>
<feColorMatrix type="matrix" values="0 0 0 0 0.545098 0 0 0 0 0.878431 0 0 0 0 0.968627 0 0 0 1 0"/>
<feBlend mode="normal" in2="BackgroundImageFix" result="effect1_dropShadow_1107_20728"/>
<feBlend mode="normal" in="SourceGraphic" in2="effect1_dropShadow_1107_20728" result="shape"/>
</filter>
<filter id="filter2_d_1107_20728" x="114.81" y="110.458" width="381.851" height="208.208" filterUnits="userSpaceOnUse" color-interpolation-filters="sRGB">
<feFlood flood-opacity="0" result="BackgroundImageFix"/>
<feColorMatrix in="SourceAlpha" type="matrix" values="0 0 0 0 0 0 0 0 0 0 0 0 0 0 0 0 0 0 127 0" result="hardAlpha"/>
<feOffset/>
<feGaussianBlur stdDeviation="1.23982"/>
<feComposite in2="hardAlpha" operator="out"/>
<feColorMatrix type="matrix" values="0 0 0 0 0.407843 0 0 0 0 0.988235 0 0 0 0 0.988235 0 0 0 1 0"/>
<feBlend mode="normal" in2="BackgroundImageFix" result="effect1_dropShadow_1107_20728"/>
<feBlend mode="normal" in="SourceGraphic" in2="effect1_dropShadow_1107_20728" result="shape"/>
</filter>
<filter id="filter3_d_1107_20728" x="81.7721" y="318.964" width="97.4026" height="55.3513" filterUnits="userSpaceOnUse" color-interpolation-filters="sRGB">
<feFlood flood-opacity="0" result="BackgroundImageFix"/>
<feColorMatrix in="SourceAlpha" type="matrix" values="0 0 0 0 0 0 0 0 0 0 0 0 0 0 0 0 0 0 127 0" result="hardAlpha"/>
<feOffset dy="4.43788"/>
<feGaussianBlur stdDeviation="2.21894"/>
<feComposite in2="hardAlpha" operator="out"/>
<feColorMatrix type="matrix" values="0 0 0 0 0 0 0 0 0 0 0 0 0 0 0 0 0 0 0.25 0"/>
<feBlend mode="normal" in2="BackgroundImageFix" result="effect1_dropShadow_1107_20728"/>
<feBlend mode="normal" in="SourceGraphic" in2="effect1_dropShadow_1107_20728" result="shape"/>
</filter>
<filter id="filter4_d_1107_20728" x="-293.906" y="-119.687" width="849.68" height="877.842" filterUnits="userSpaceOnUse" color-interpolation-filters="sRGB">
<feFlood flood-opacity="0" result="BackgroundImageFix"/>
<feColorMatrix in="SourceAlpha" type="matrix" values="0 0 0 0 0 0 0 0 0 0 0 0 0 0 0 0 0 0 127 0" result="hardAlpha"/>
<feOffset/>
<feGaussianBlur stdDeviation="204.408"/>
<feComposite in2="hardAlpha" operator="out"/>
<feColorMatrix type="matrix" values="0 0 0 0 0.745638 0 0 0 0 0.939756 0 0 0 0 1 0 0 0 1 0"/>
<feBlend mode="normal" in2="BackgroundImageFix" result="effect1_dropShadow_1107_20728"/>
<feBlend mode="normal" in="SourceGraphic" in2="effect1_dropShadow_1107_20728" result="shape"/>
</filter>
<filter id="filter5_d_1107_20728" x="422.847" y="83.0244" width="107.396" height="60.5974" filterUnits="userSpaceOnUse" color-interpolation-filters="sRGB">
<feFlood flood-opacity="0" result="BackgroundImageFix"/>
<feColorMatrix in="SourceAlpha" type="matrix" values="0 0 0 0 0 0 0 0 0 0 0 0 0 0 0 0 0 0 127 0" result="hardAlpha"/>
<feOffset dy="4.43788"/>
<feGaussianBlur stdDeviation="2.21894"/>
<feComposite in2="hardAlpha" operator="out"/>
<feColorMatrix type="matrix" values="0 0 0 0 0 0 0 0 0 0 0 0 0 0 0 0 0 0 0.25 0"/>
<feBlend mode="normal" in2="BackgroundImageFix" result="effect1_dropShadow_1107_20728"/>
<feBlend mode="normal" in="SourceGraphic" in2="effect1_dropShadow_1107_20728" result="shape"/>
</filter>
<filter id="filter6_d_1107_20728" x="48.3893" y="-357.697" width="853.298" height="884.639" filterUnits="userSpaceOnUse" color-interpolation-filters="sRGB">
<feFlood flood-opacity="0" result="BackgroundImageFix"/>
<feColorMatrix in="SourceAlpha" type="matrix" values="0 0 0 0 0 0 0 0 0 0 0 0 0 0 0 0 0 0 127 0" result="hardAlpha"/>
<feOffset/>
<feGaussianBlur stdDeviation="204.408"/>
<feComposite in2="hardAlpha" operator="out"/>
<feColorMatrix type="matrix" values="0 0 0 0 0.745638 0 0 0 0 0.939756 0 0 0 0 1 0 0 0 1 0"/>
<feBlend mode="normal" in2="BackgroundImageFix" result="effect1_dropShadow_1107_20728"/>
<feBlend mode="normal" in="SourceGraphic" in2="effect1_dropShadow_1107_20728" result="shape"/>
</filter>
<filter id="filter7_d_1107_20728" x="-4.43788" y="194.859" width="95.7927" height="54.5066" filterUnits="userSpaceOnUse" color-interpolation-filters="sRGB">
<feFlood flood-opacity="0" result="BackgroundImageFix"/>
<feColorMatrix in="SourceAlpha" type="matrix" values="0 0 0 0 0 0 0 0 0 0 0 0 0 0 0 0 0 0 127 0" result="hardAlpha"/>
<feOffset dy="4.43788"/>
<feGaussianBlur stdDeviation="2.21894"/>
<feComposite in2="hardAlpha" operator="out"/>
<feColorMatrix type="matrix" values="0 0 0 0 0 0 0 0 0 0 0 0 0 0 0 0 0 0 0.25 0"/>
<feBlend mode="normal" in2="BackgroundImageFix" result="effect1_dropShadow_1107_20728"/>
<feBlend mode="normal" in="SourceGraphic" in2="effect1_dropShadow_1107_20728" result="shape"/>
</filter>
<filter id="filter8_d_1107_20728" x="-381.586" y="-262.153" width="857.678" height="899.631" filterUnits="userSpaceOnUse" color-interpolation-filters="sRGB">
<feFlood flood-opacity="0" result="BackgroundImageFix"/>
<feColorMatrix in="SourceAlpha" type="matrix" values="0 0 0 0 0 0 0 0 0 0 0 0 0 0 0 0 0 0 127 0" result="hardAlpha"/>
<feOffset/>
<feGaussianBlur stdDeviation="204.408"/>
<feComposite in2="hardAlpha" operator="out"/>
<feColorMatrix type="matrix" values="0 0 0 0 0.745638 0 0 0 0 0.939756 0 0 0 0 1 0 0 0 1 0"/>
<feBlend mode="normal" in2="BackgroundImageFix" result="effect1_dropShadow_1107_20728"/>
<feBlend mode="normal" in="SourceGraphic" in2="effect1_dropShadow_1107_20728" result="shape"/>
</filter>
<filter id="filter9_d_1107_20728" x="53.8595" y="63.3408" width="136.716" height="75.991" filterUnits="userSpaceOnUse" color-interpolation-filters="sRGB">
<feFlood flood-opacity="0" result="BackgroundImageFix"/>
<feColorMatrix in="SourceAlpha" type="matrix" values="0 0 0 0 0 0 0 0 0 0 0 0 0 0 0 0 0 0 127 0" result="hardAlpha"/>
<feOffset dy="4.43788"/>
<feGaussianBlur stdDeviation="2.21894"/>
<feComposite in2="hardAlpha" operator="out"/>
<feColorMatrix type="matrix" values="0 0 0 0 0 0 0 0 0 0 0 0 0 0 0 0 0 0 0.25 0"/>
<feBlend mode="normal" in2="BackgroundImageFix" result="effect1_dropShadow_1107_20728"/>
<feBlend mode="normal" in="SourceGraphic" in2="effect1_dropShadow_1107_20728" result="shape"/>
</filter>
<filter id="filter10_d_1107_20728" x="-313.256" y="-362.817" width="887.654" height="889.655" filterUnits="userSpaceOnUse" color-interpolation-filters="sRGB">
<feFlood flood-opacity="0" result="BackgroundImageFix"/>
<feColorMatrix in="SourceAlpha" type="matrix" values="0 0 0 0 0 0 0 0 0 0 0 0 0 0 0 0 0 0 127 0" result="hardAlpha"/>
<feOffset/>
<feGaussianBlur stdDeviation="204.408"/>
<feComposite in2="hardAlpha" operator="out"/>
<feColorMatrix type="matrix" values="0 0 0 0 0.745638 0 0 0 0 0.939756 0 0 0 0 1 0 0 0 1 0"/>
<feBlend mode="normal" in2="BackgroundImageFix" result="effect1_dropShadow_1107_20728"/>
<feBlend mode="normal" in="SourceGraphic" in2="effect1_dropShadow_1107_20728" result="shape"/>
</filter>
<filter id="filter11_d_1107_20728" x="426.658" y="320.484" width="104.793" height="59.2312" filterUnits="userSpaceOnUse" color-interpolation-filters="sRGB">
<feFlood flood-opacity="0" result="BackgroundImageFix"/>
<feColorMatrix in="SourceAlpha" type="matrix" values="0 0 0 0 0 0 0 0 0 0 0 0 0 0 0 0 0 0 127 0" result="hardAlpha"/>
<feOffset dy="4.43788"/>
<feGaussianBlur stdDeviation="2.21894"/>
<feComposite in2="hardAlpha" operator="out"/>
<feColorMatrix type="matrix" values="0 0 0 0 0 0 0 0 0 0 0 0 0 0 0 0 0 0 0.25 0"/>
<feBlend mode="normal" in2="BackgroundImageFix" result="effect1_dropShadow_1107_20728"/>
<feBlend mode="normal" in="SourceGraphic" in2="effect1_dropShadow_1107_20728" result="shape"/>
</filter>
<filter id="filter12_d_1107_20728" x="49.7345" y="-129.073" width="860.694" height="895.78" filterUnits="userSpaceOnUse" color-interpolation-filters="sRGB">
<feFlood flood-opacity="0" result="BackgroundImageFix"/>
<feColorMatrix in="SourceAlpha" type="matrix" values="0 0 0 0 0 0 0 0 0 0 0 0 0 0 0 0 0 0 127 0" result="hardAlpha"/>
<feOffset/>
<feGaussianBlur stdDeviation="204.408"/>
<feComposite in2="hardAlpha" operator="out"/>
<feColorMatrix type="matrix" values="0 0 0 0 0.745638 0 0 0 0 0.939756 0 0 0 0 1 0 0 0 1 0"/>
<feBlend mode="normal" in2="BackgroundImageFix" result="effect1_dropShadow_1107_20728"/>
<feBlend mode="normal" in="SourceGraphic" in2="effect1_dropShadow_1107_20728" result="shape"/>
</filter>
<filter id="filter13_d_1107_20728" x="513.467" y="174.257" width="142.216" height="79.4763" filterUnits="userSpaceOnUse" color-interpolation-filters="sRGB">
<feFlood flood-opacity="0" result="BackgroundImageFix"/>
<feColorMatrix in="SourceAlpha" type="matrix" values="0 0 0 0 0 0 0 0 0 0 0 0 0 0 0 0 0 0 127 0" result="hardAlpha"/>
<feOffset dy="4.43788"/>
<feGaussianBlur stdDeviation="2.21894"/>
<feComposite in2="hardAlpha" operator="out"/>
<feColorMatrix type="matrix" values="0 0 0 0 0 0 0 0 0 0 0 0 0 0 0 0 0 0 0.25 0"/>
<feBlend mode="normal" in2="BackgroundImageFix" result="effect1_dropShadow_1107_20728"/>
<feBlend mode="normal" in="SourceGraphic" in2="effect1_dropShadow_1107_20728" result="shape"/>
</filter>
<filter id="filter14_d_1107_20728" x="127.107" y="-256.181" width="913.277" height="904.676" filterUnits="userSpaceOnUse" color-interpolation-filters="sRGB">
<feFlood flood-opacity="0" result="BackgroundImageFix"/>
<feColorMatrix in="SourceAlpha" type="matrix" values="0 0 0 0 0 0 0 0 0 0 0 0 0 0 0 0 0 0 127 0" result="hardAlpha"/>
<feOffset/>
<feGaussianBlur stdDeviation="204.408"/>
<feComposite in2="hardAlpha" operator="out"/>
<feColorMatrix type="matrix" values="0 0 0 0 0.745638 0 0 0 0 0.939756 0 0 0 0 1 0 0 0 1 0"/>
<feBlend mode="normal" in2="BackgroundImageFix" result="effect1_dropShadow_1107_20728"/>
<feBlend mode="normal" in="SourceGraphic" in2="effect1_dropShadow_1107_20728" result="shape"/>
</filter>
<filter id="filter15_d_1107_20728" x="126.506" y="116.91" width="359.833" height="193.7" filterUnits="userSpaceOnUse" color-interpolation-filters="sRGB">
<feFlood flood-opacity="0" result="BackgroundImageFix"/>
<feColorMatrix in="SourceAlpha" type="matrix" values="0 0 0 0 0 0 0 0 0 0 0 0 0 0 0 0 0 0 127 0" result="hardAlpha"/>
<feOffset dy="2.14275"/>
<feComposite in2="hardAlpha" operator="out"/>
<feColorMatrix type="matrix" values="0 0 0 0 0 0 0 0 0 0 0 0 0 0 0 0 0 0 0.25 0"/>
<feBlend mode="normal" in2="BackgroundImageFix" result="effect1_dropShadow_1107_20728"/>
<feBlend mode="normal" in="SourceGraphic" in2="effect1_dropShadow_1107_20728" result="shape"/>
</filter>
<filter id="filter16_d_1107_20728" x="161.431" y="117.97" width="296.333" height="159.834" filterUnits="userSpaceOnUse" color-interpolation-filters="sRGB">
<feFlood flood-opacity="0" result="BackgroundImageFix"/>
<feColorMatrix in="SourceAlpha" type="matrix" values="0 0 0 0 0 0 0 0 0 0 0 0 0 0 0 0 0 0 127 0" result="hardAlpha"/>
<feOffset dy="2.14275"/>
<feComposite in2="hardAlpha" operator="out"/>
<feColorMatrix type="matrix" values="0 0 0 0 0 0 0 0 0 0 0 0 0 0 0 0 0 0 0.25 0"/>
<feBlend mode="normal" in2="BackgroundImageFix" result="effect1_dropShadow_1107_20728"/>
<feBlend mode="normal" in="SourceGraphic" in2="effect1_dropShadow_1107_20728" result="shape"/>
</filter>
<filter id="filter17_d_1107_20728" x="190.006" y="122.203" width="234.95" height="127.026" filterUnits="userSpaceOnUse" color-interpolation-filters="sRGB">
<feFlood flood-opacity="0" result="BackgroundImageFix"/>
<feColorMatrix in="SourceAlpha" type="matrix" values="0 0 0 0 0 0 0 0 0 0 0 0 0 0 0 0 0 0 127 0" result="hardAlpha"/>
<feOffset dy="2.14275"/>
<feComposite in2="hardAlpha" operator="out"/>
<feColorMatrix type="matrix" values="0 0 0 0 0 0 0 0 0 0 0 0 0 0 0 0 0 0 0.25 0"/>
<feBlend mode="normal" in2="BackgroundImageFix" result="effect1_dropShadow_1107_20728"/>
<feBlend mode="normal" in="SourceGraphic" in2="effect1_dropShadow_1107_20728" result="shape"/>
</filter>
<linearGradient id="paint0_linear_1107_20728" x1="328.894" y1="143.832" x2="335.931" y2="154.575" gradientUnits="userSpaceOnUse">
<stop offset="0.0025215" stop-color="#F6F8FB"/>
<stop offset="1" stop-color="#C5CEDA"/>
</linearGradient>
<clipPath id="clip0_1107_20728">
<rect width="651" height="416" fill="white"/>
</clipPath>
</defs>
</svg>
